<svg id="Layer_1" data-name="Layer 1" xmlns="http://www.w3.org/2000/svg" viewBox="0 0 297.83 111.02"><defs><style>.cls-1{fill:#da2536;}</style></defs><title>ppfrLogo</title><path class="cls-1" d="M1,6.23c-.26,0-.45-.32-.45-.7,0-.06.07-.13.19-.13a73.73,73.73,0,0,1,10.19-.77c7.72,0,11.64,4.48,11.64,10.56S17.84,28,10.06,28a9.59,9.59,0,0,1-2-.13c-.07,2.31-.26,13-.26,14.28,0,.7.19.83.64.89l3.29.64c.19.07.31.39.31.64,0,.07,0,.13-.12.13-1.65-.06-3.93-.13-5.76-.13s-3.8.07-5,.13c-.13,0-.13-.06-.13-.13,0-.25.07-.51.26-.57l2.15-.58c.44-.13.57-.26.57-1C4.11,39.77,4,26.65,4,23.9c-.06-2.56-.19-15.3-.19-16.51,0-.71-.25-1-.88-1Zm9,20.67c3.16,0,7.72-3.26,7.72-11.13,0-5.38-3-10.11-7.21-10.11-1.59,0-1.84.51-1.84,1.15C8.29,14,8.1,24.54,8.1,25.88c0,.77.69,1,1.77,1Z"/><path class="cls-1" d="M40.81,27.61c0,1.09-.51,1.6-1.2,1.73-1.58.51-8.23.57-11.14.38,0,1.28.07,3.14.13,4.1.38,5.18,2.21,9,5.57,9A7.93,7.93,0,0,0,37,42.33a18.51,18.51,0,0,0,3.42-1.86c.13-.06.38.39.38.64a.34.34,0,0,1-.19.32,24.74,24.74,0,0,1-4.93,2.82,8.41,8.41,0,0,1-3.36.57c-5.57,0-8.48-4.35-8.48-13,0-7,3-17.09,9.81-17.09,4.81,0,7.15,6.4,7.15,12.86ZM33,15.83c-2.47,0-4.31,5-4.56,12.87a22,22,0,0,0,6.77-.45c.64-.26,1.14-.64,1.14-2.11,0-3-.5-10.31-3.29-10.31Z"/><path class="cls-1" d="M50.62,29.59c.06-.51.19-1.28.31-2.05,1-4.73,3.55-12.86,8-12.86a2.58,2.58,0,0,1,1.46.39.29.29,0,0,1,.19.32L60.93,22c0,.32-.44.51-.57.51s-.06-.06-.12-.12c-.51-1.22-1-2.56-1.59-3.72A1.24,1.24,0,0,0,57.52,18c-3.55,0-6.33,10.87-7,17.79-.26,1.72-.45,5.63-.45,6.72,0,.44.26.64.7.7l3.54.58c.13,0,.32.38.32.57s0,.13-.13.13c-1-.06-3.48-.13-6-.13-2.15,0-3.92.07-4.49.13-.13,0-.13-.06-.13-.13a.6.6,0,0,1,.32-.57l2-.58c.32-.06.44-.26.44-.64,0-.7,0-9-.06-13.06-.06-3.71-.19-9.4-.25-11.39,0-.38-.07-.76-.45-.83H43.59c-.25,0-.38-.38-.38-.64s0-.13.19-.19l7-1.66c.5-.13.57.12.57.44s-.38,9.28-.57,12.67a15.55,15.55,0,0,0-.06,1.73Z"/><path class="cls-1" d="M70,14.68c.38-.06.51.19.51.51,0,.52-.44,11.27-.51,15.3-.06,2.43-.25,10.3-.25,12,0,.45.19.58.63.7l2,.52a.78.78,0,0,1,.25.57c0,.13-.06.13-.12.13-1.14-.06-2.85-.13-4.69-.13s-3.6.07-4.49.13c-.13,0-.13-.06-.13-.13,0-.25.07-.51.32-.57l2.09-.64c.38-.13.57-.26.57-.58,0-.51-.13-8.45-.19-12.61-.06-3.65-.25-10-.32-12,0-.38,0-.7-.44-.7L63,17.11c-.19,0-.45-.38-.45-.64s.07-.19.13-.19ZM67.77,5.79a2.3,2.3,0,0,1,2.46,2.36,2.54,2.54,0,0,1-2.53,2.5A2.6,2.6,0,0,1,65,8.28,2.55,2.55,0,0,1,67.7,5.79Z"/><path class="cls-1" d="M79.16,1.43c0,1.67-1.71,7.3-3.8,10.37a.11.11,0,0,1-.19,0,.67.67,0,0,1-.38-.64,52.11,52.11,0,0,0,1.52-8.45c0-.32.31-.76,1-1.08A6.58,6.58,0,0,1,79,1.11c.12,0,.19.07.19.26Z"/><path class="cls-1" d="M78.27,23.13c0-4.16,3.86-8.45,9.3-8.45a8,8,0,0,1,3.36.51.42.42,0,0,1,.19.39l.44,5.31c0,.32-.44.58-.7.58-.06,0-.12,0-.19-.2-.57-1.28-1.14-2.56-1.83-3.9a2.66,2.66,0,0,0-.7-.9A2.56,2.56,0,0,0,86.37,16c-2.91,0-4.3,2.63-4.3,5.06,0,2.62,1.14,4.22,4.36,6.46,3.74,2.56,5.76,5.06,5.76,8.7,0,4.42-3.61,8.64-10.63,8.64a12,12,0,0,1-3.1-.44.49.49,0,0,1-.38-.45l-.51-5.38c0-.25.51-.57.76-.57.07,0,.07,0,.13.12.63,1.35,1.27,2.82,2,4.16a2.78,2.78,0,0,0,.76.77,2.86,2.86,0,0,0,1.65.58c3.22,0,5.94-1.79,5.94-5.44,0-2.56-1.39-4.67-5.18-7.17s-5.32-4.74-5.32-7.81Z"/><path class="cls-1" d="M104.09,6.23c-.26,0-.45-.32-.45-.7,0-.06.07-.13.19-.13A73.73,73.73,0,0,1,114,4.63c7.72,0,11.64,4.48,11.64,10.56S121,28,113.2,28a9.59,9.59,0,0,1-2-.13c-.07,2.31-.26,13-.26,14.28,0,.7.19.83.64.89l3.29.64c.19.07.31.39.31.64,0,.07,0,.13-.12.13-1.65-.06-3.93-.13-5.76-.13s-3.8.07-5,.13c-.13,0-.13-.06-.13-.13,0-.25.07-.51.26-.57l2.15-.58c.44-.13.57-.26.57-1,.06-2.43-.07-15.55-.07-18.3-.06-2.56-.19-15.3-.19-16.51,0-.71-.25-1-.88-1Zm9,20.67c3.17,0,7.72-3.26,7.72-11.13,0-5.38-3-10.11-7.21-10.11-1.58,0-1.84.51-1.84,1.15-.31,7.17-.5,17.73-.5,19.07,0,.77.69,1,1.77,1Z"/><path class="cls-1" d="M135.28,1.11c.38-.06.44.13.44.52,0,.57-.5,14.4-.56,21.11-.07,4.1-.38,19.14-.38,19.78,0,.32.12.51.57.64l2.15.64a.59.59,0,0,1,.25.51c0,.07,0,.13-.13.13-1.71-.06-2.78-.13-4.62-.13-2.08,0-3.22.07-4.49.13a.14.14,0,0,1-.13-.13c0-.19.07-.45.26-.51l2.09-.58a.69.69,0,0,0,.5-.7c0-.83-.12-16.19-.12-19.84,0-4-.19-15.81-.26-18.81,0-.45-.19-.9-.57-.9l-2.4-.13c-.26,0-.38-.25-.38-.57,0-.13,0-.2.19-.2Z"/><path class="cls-1" d="M153.7,28.44c-.07-1.47-.26-3.39-.32-4.35-.44-4.74-1.52-7.1-4-7.1-1.9,0-4.17,2-6.26,5.11-.07.07-.13.13-.19.13s-.7-.51-.51-.83c3-4.93,6.08-6.72,9.62-6.72,4.56,0,5.82,5.63,5.82,11.78,0,1.15-.12,5.95-.19,7.8-.12,2.24-.31,6.85-.31,8.07,0,.45.12.57.63.7l2,.71a.48.48,0,0,1,.32.51c0,.13-.07.13-.19.13-.76-.07-2-.07-3.17-.07s-2.09,0-2.72.07c-.19,0-.31-.13-.31-.39,0-1-.07-3.71-.07-5.18,0-.51.07-1.41.07-2.05h-.13c-.25.64-.44,1.34-.7,1.92-1.07,2.69-3.22,6.14-6.83,6.14-3.17,0-5.76-3-5.76-8.38,0-5.12,2.59-11.07,7.66-11.07a5.92,5.92,0,0,1,4.62,2.11,8.45,8.45,0,0,1,.76,1Zm-5.57,14c2.34,0,4.17-3.2,5.38-8.52a12.94,12.94,0,0,0,.19-1.4,7.27,7.27,0,0,0-.26-1.41c-.31-1.22-1.71-4.42-4.43-4.42s-4.11,3.91-4.11,8.77c0,4.54,1.27,7,3.16,7Z"/><path class="cls-1" d="M163.06,32a23.13,23.13,0,0,1,4.11-13.18,9.84,9.84,0,0,1,8-4.16,6.79,6.79,0,0,1,3.1.58.37.37,0,0,1,.19.38l.32,5.89c0,.25-.45.51-.64.51S178,22,178,21.91c-.69-1.6-1.26-3.2-2-4.6a2.37,2.37,0,0,0-.69-1,1.9,1.9,0,0,0-1.21-.45c-2.08,0-3.67,2.76-4.74,5.76a33.74,33.74,0,0,0-1.52,10.18c0,7.68,2.72,11.2,5.76,11.2a8.72,8.72,0,0,0,2.47-.32,20.83,20.83,0,0,0,3.22-1.41c.13-.06.32.13.32.58a.36.36,0,0,1-.19.32,24.35,24.35,0,0,1-4.3,2.17,8,8,0,0,1-3,.51c-5.44,0-9.05-4-9.05-12.73Z"/><path class="cls-1" d="M198.88,27.61c0,1.09-.51,1.6-1.21,1.73-1.58.51-8.22.57-11.13.38,0,1.28.06,3.14.12,4.1.38,5.18,2.22,9,5.57,9a8,8,0,0,0,2.85-.51,19.17,19.17,0,0,0,3.42-1.86c.12-.06.38.39.38.64a.36.36,0,0,1-.19.32,24.83,24.83,0,0,1-4.94,2.82,8.35,8.35,0,0,1-3.35.57c-5.57,0-8.48-4.35-8.48-13,0-7,3-17.09,9.81-17.09,4.81,0,7.15,6.4,7.15,12.86Zm-7.79-11.78c-2.47,0-4.3,5-4.55,12.87a22.08,22.08,0,0,0,6.77-.45c.63-.26,1.14-.64,1.14-2.11,0-3-.51-10.31-3.29-10.31Z"/><path class="cls-1" d="M107.78,66.11c0,.19-.37.38-.56.38s-.13,0-.13-.06c-.63-1.79-1.27-3.52-2-5.19-.13-.51-.51-.76-1.21-.83-1.83-.25-6.2-.45-7-.45-.31,0-.44.13-.44.45-.06,3-.44,16.13-.44,17.35,4.11.06,8.67.25,10.06.25a.15.15,0,0,1,.13.13c0,.32-.19.83-.45.83-1.83.19-5.95.32-9.11.58-.51.06-.69.25-.69.7,0,2.43-.26,14.78-.19,16.06.06.71.25.77.69.9l3.1.58a.6.6,0,0,1,.32.57c0,.07,0,.13-.13.13-1.39-.06-3.61-.13-5.82-.13-1.9,0-3.61.07-4.81.13-.13,0-.13-.06-.13-.13s.13-.51.32-.57l2-.58c.38-.13.51-.19.57-.9,0-2.11-.12-15.61-.19-18s-.25-15.49-.31-17.09c-.07-.57-.13-.9-.7-1l-1.84-.45c-.25-.06-.31-.38-.31-.71,0-.06,0-.12.19-.12h2.53c.76.06,1.58.06,2.34.06,8.42,0,12.72-.19,13.54-.19.32,0,.45.06.45.45Z"/><path class="cls-1" d="M118,98.87c-5.38,0-8.42-5.24-8.42-13,0-8.25,3.29-17.15,10.57-17.15,5.5,0,8.67,5.25,8.67,13.06,0,8.06-3,17.08-10.76,17.08Zm1.26-1.08c3.92,0,4.87-7.75,4.87-15.11,0-8-1.64-12.8-4.74-12.8-3.8,0-5.06,7.68-5.06,15.17,0,7.74,2,12.74,4.87,12.74Z"/><path class="cls-1" d="M138.92,83.64c.06-.51.19-1.28.31-2,1-4.74,3.55-12.87,8-12.87a2.58,2.58,0,0,1,1.46.39.29.29,0,0,1,.19.32l.31,6.65c0,.32-.44.51-.57.51s-.06-.06-.12-.12c-.51-1.22-1-2.56-1.59-3.72a1.24,1.24,0,0,0-1.13-.76c-3.55,0-6.33,10.87-7,17.79-.25,1.72-.44,5.63-.44,6.72,0,.44.25.64.7.7l3.54.58c.13,0,.32.38.32.57s0,.13-.13.13c-1-.06-3.48-.13-6-.13-2.15,0-3.92.07-4.49.13-.13,0-.13-.06-.13-.13a.6.6,0,0,1,.32-.57l2-.58c.32-.06.44-.26.44-.64,0-.7,0-9-.06-13-.06-3.72-.19-9.41-.25-11.4,0-.38-.07-.76-.45-.83h-2.28c-.25,0-.38-.38-.38-.64s0-.13.19-.19l7-1.66c.5-.13.57.12.57.44s-.38,9.28-.57,12.67a13.34,13.34,0,0,0-.07,1.73Z"/><path class="cls-1" d="M179.73,68.86c0,5.57-4,8.9-6.45,10.3a159.78,159.78,0,0,1,7.21,17.09,1.57,1.57,0,0,0,.82,1l1.65.51c.25.07.32.45.32.58s0,.19-.13.19c-.76-.06-2.34-.13-3.86-.13s-3.17.07-4.75.13c-.12,0-.12-.06-.12-.13,0-.25.06-.57.25-.64l1.83-.45c.45-.12.83-.32.51-.89-1.71-3.78-5.25-11.26-7.91-15.17a.6.6,0,0,0-.63-.32,18.54,18.54,0,0,1-2.79,0c-.06,2.5-.38,13.82-.38,15.3,0,.64.13.83.51.89l2.72.64c.19.07.26.39.26.58s0,.19-.13.19c-1.39-.06-3.1-.13-5-.13s-3.48.07-4.87.13c-.13,0-.13-.06-.13-.19s.06-.51.32-.58l2.09-.57c.38-.07.5-.32.5-.9,0-2.37-.12-15.55-.12-18.3,0-2.56-.13-15.43-.2-16.45,0-.7-.18-1-.75-1.09l-2-.13c-.25,0-.44-.44-.44-.7,0-.06.06-.13.19-.13a67.22,67.22,0,0,1,10.19-.76c7.91,0,11.26,4.67,11.26,10.11Zm-12.27,11c3.1,0,7.46-2.69,7.46-10.5,0-5.37-2.72-9.72-6.83-9.72-1,0-1.84.19-1.9.89-.25,4.67-.57,17.41-.57,18.5,0,.83.38.83,1.77.83Z"/><path class="cls-1" d="M201.31,81.66c0,1.09-.51,1.6-1.2,1.73-1.58.51-8.23.57-11.14.38,0,1.28.06,3.14.13,4.1.38,5.18,2.21,9,5.57,9a7.93,7.93,0,0,0,2.84-.51,18.84,18.84,0,0,0,3.42-1.86c.13-.06.38.39.38.64a.34.34,0,0,1-.19.32,24.83,24.83,0,0,1-4.94,2.82,8.31,8.31,0,0,1-3.35.57c-5.57,0-8.48-4.35-8.48-13.05,0-7,3-17.09,9.81-17.09,4.81,0,7.15,6.4,7.15,12.87Zm-7.78-11.78c-2.47,0-4.31,5-4.56,12.87a22,22,0,0,0,6.77-.45c.63-.26,1.14-.64,1.14-2.11,0-3-.51-10.31-3.29-10.31Z"/><path class="cls-1" d="M204.85,86.08A23.11,23.11,0,0,1,209,72.89a9.81,9.81,0,0,1,8-4.16,6.79,6.79,0,0,1,3.1.58.37.37,0,0,1,.19.38l.32,5.89c0,.26-.44.51-.63.51s-.19-.06-.19-.13c-.7-1.6-1.27-3.2-2-4.6a2.47,2.47,0,0,0-.7-1,1.89,1.89,0,0,0-1.2-.45c-2.09,0-3.67,2.76-4.75,5.76a33.79,33.79,0,0,0-1.52,10.18c0,7.68,2.72,11.2,5.76,11.2a8.66,8.66,0,0,0,2.47-.32,20.93,20.93,0,0,0,3.23-1.41c.12-.06.31.13.31.58a.36.36,0,0,1-.19.32,24.35,24.35,0,0,1-4.3,2.17,7.91,7.91,0,0,1-3,.51c-5.44,0-9.05-4-9.05-12.73Z"/><path class="cls-1" d="M230.73,68.73c.38-.06.51.19.51.51,0,.52-.44,11.27-.51,15.3-.06,2.43-.25,10.3-.25,12,0,.45.19.58.63.7l2,.52a.78.78,0,0,1,.25.57c0,.13-.06.13-.12.13-1.14-.06-2.85-.13-4.69-.13s-3.6.07-4.49.13c-.13,0-.13-.06-.13-.13,0-.25.07-.51.32-.57l2.09-.64c.38-.13.57-.26.57-.58,0-.51-.13-8.45-.19-12.61-.07-3.64-.26-10-.32-12,0-.38,0-.7-.44-.7l-2.34-.07c-.19,0-.45-.38-.45-.64s.07-.19.13-.19Zm-2.27-8.89a2.3,2.3,0,0,1,2.46,2.36,2.54,2.54,0,0,1-2.53,2.5,2.6,2.6,0,0,1-2.72-2.37,2.55,2.55,0,0,1,2.72-2.49Z"/><path class="cls-1" d="M242,96.31c0,.64-.07,2.24-.07,2.82-.06,2.18-.12,8.06-.12,9.15,0,.45.19.58.63.64l2.91.71a.57.57,0,0,1,.32.51c0,.06,0,.13-.13.13-1.84-.13-3.61-.13-5.44-.13s-3,.06-4.37.13c-.12,0-.12-.07-.12-.13,0-.26.06-.51.31-.58l1.84-.51a.69.69,0,0,0,.5-.7c0-.84-.06-17.48-.12-22.53S238,74.17,237.82,72c0-.45,0-.71-.38-.77l-2-.07a.58.58,0,0,1-.51-.64c0-.12,0-.12.19-.19l7.09-1.53c.31-.07.38.06.38.38s-.38,8.06-.51,10.94c-.06,1.67-.13,2.63-.13,3.33l.19.07c.19-1,.32-1.73.45-2.37,1.33-5.63,4.36-12.42,8.48-12.42s5.69,5.31,5.69,10.69c0,11.26-3.73,19.26-10.12,19.26A5.29,5.29,0,0,1,243,97.27c-.19-.25-.57-.57-.89-1Zm4.81,1.35c3.48,0,5.44-6.15,5.44-16.32,0-4.67-.89-9.34-3.36-9.34-3,0-5.88,9.15-6.89,16.76a6.4,6.4,0,0,0-.07,1.15A5,5,0,0,0,242,91c.57,4.42,2.46,6.66,4.74,6.66Z"/><path class="cls-1" d="M277.5,81.66c0,1.09-.51,1.6-1.21,1.73-1.58.51-8.22.57-11.13.38,0,1.28.06,3.14.12,4.1.38,5.18,2.22,9,5.57,9a8,8,0,0,0,2.85-.51,19.17,19.17,0,0,0,3.42-1.86c.12-.06.38.39.38.64a.36.36,0,0,1-.19.32,24.83,24.83,0,0,1-4.94,2.82,8.35,8.35,0,0,1-3.35.57c-5.57,0-8.48-4.35-8.48-13.05,0-7,3-17.09,9.8-17.09,4.81,0,7.16,6.4,7.16,12.87Zm-7.79-11.78c-2.47,0-4.3,5-4.55,12.87a22.08,22.08,0,0,0,6.77-.45c.63-.26,1.14-.64,1.14-2.11,0-3-.51-10.31-3.29-10.31Z"/><path class="cls-1" d="M281.61,77.18c0-4.16,3.86-8.45,9.3-8.45a7.87,7.87,0,0,1,3.35.51.4.4,0,0,1,.19.39l.45,5.31c0,.32-.45.58-.7.58-.06,0-.13,0-.19-.2-.57-1.28-1.14-2.56-1.84-3.9a2.64,2.64,0,0,0-.69-.9,2.58,2.58,0,0,0-1.77-.51c-2.91,0-4.31,2.63-4.31,5.06,0,2.62,1.14,4.22,4.37,6.46,3.73,2.56,5.76,5.06,5.76,8.71,0,4.41-3.61,8.63-10.63,8.63a12,12,0,0,1-3.1-.44.49.49,0,0,1-.38-.45l-.51-5.38c0-.25.51-.57.76-.57.06,0,.06,0,.13.12.63,1.35,1.26,2.82,2,4.16a2.78,2.78,0,0,0,.76.77,2.83,2.83,0,0,0,1.64.58c3.23,0,5.95-1.79,5.95-5.44,0-2.56-1.39-4.67-5.19-7.17s-5.31-4.73-5.31-7.81Z"/><rect y="53.1" width="297.83" height="4"/></svg>